<svg xmlns="http://www.w3.org/2000/svg" viewBox="0 0 800 600" width="800" height="600">
  <!-- Background -->
  <defs>
    <linearGradient id="bg-gradient" x1="0%" y1="0%" x2="100%" y2="100%">
      <stop offset="0%" stop-color="#EDF1FD" />
      <stop offset="100%" stop-color="#D9E2FF" />
    </linearGradient>
  </defs>
  <rect width="800" height="600" fill="url(#bg-gradient)" opacity="0.3" rx="20" ry="20" />
  
  <!-- Dashboard UI -->
  <rect x="100" y="100" width="600" height="400" rx="10" ry="10" fill="#FFFFFF" stroke="#E0E6F0" stroke-width="2" />
  
  <!-- Dashboard Header -->
  <rect x="100" y="100" width="600" height="60" rx="10" ry="10" fill="#5B68DF" />
  <circle cx="140" cy="130" r="15" fill="#FFFFFF" opacity="0.9" />
  <rect x="170" y="122" width="80" height="16" rx="4" ry="4" fill="#FFFFFF" opacity="0.7" />
  <rect x="550" y="122" width="120" height="16" rx="4" ry="4" fill="#FFFFFF" opacity="0.5" />
  
  <!-- Sidebar -->
  <rect x="100" y="160" width="150" height="340" fill="#F8F9FD" />
  <rect x="120" y="190" width="110" height="10" rx="5" ry="5" fill="#5B68DF" />
  <rect x="120" y="220" width="110" height="10" rx="5" ry="5" fill="#D0D5EE" />
  <rect x="120" y="250" width="110" height="10" rx="5" ry="5" fill="#D0D5EE" />
  <rect x="120" y="280" width="110" height="10" rx="5" ry="5" fill="#D0D5EE" />
  <rect x="120" y="310" width="110" height="10" rx="5" ry="5" fill="#D0D5EE" />
  <rect x="120" y="340" width="110" height="10" rx="5" ry="5" fill="#D0D5EE" />
  
  <!-- Main Content -->
  <rect x="270" y="180" width="200" height="150" rx="8" ry="8" fill="#F3F6FF" stroke="#E0E6F0" stroke-width="1" />
  <rect x="290" y="200" width="160" height="12" rx="2" ry="2" fill="#5B68DF" opacity="0.7" />
  <rect x="290" y="225" width="120" height="10" rx="2" ry="2" fill="#A5ADDB" />
  <rect x="290" y="245" width="160" height="10" rx="2" ry="2" fill="#A5ADDB" />
  <rect x="290" y="265" width="140" height="10" rx="2" ry="2" fill="#A5ADDB" />
  <rect x="290" y="295" width="80" height="20" rx="4" ry="4" fill="#5B68DF" />
  
  <rect x="490" y="180" width="190" height="80" rx="8" ry="8" fill="#F3F6FF" stroke="#E0E6F0" stroke-width="1" />
  <circle cx="520" cy="220" r="20" fill="#FF6F61" opacity="0.8" />
  <rect x="550" y="210" width="110" height="10" rx="2" ry="2" fill="#A5ADDB" />
  <rect x="550" y="230" width="80" height="10" rx="2" ry="2" fill="#A5ADDB" />
  
  <rect x="490" y="280" width="190" height="80" rx="8" ry="8" fill="#F3F6FF" stroke="#E0E6F0" stroke-width="1" />
  <circle cx="520" cy="320" r="20" fill="#5B68DF" opacity="0.8" />
  <rect x="550" y="310" width="110" height="10" rx="2" ry="2" fill="#A5ADDB" />
  <rect x="550" y="330" width="80" height="10" rx="2" ry="2" fill="#A5ADDB" />
  
  <!-- Job Listings -->
  <rect x="270" y="350" width="410" height="90" rx="8" ry="8" fill="#F3F6FF" stroke="#E0E6F0" stroke-width="1" />
  <rect x="290" y="370" width="150" height="12" rx="2" ry="2" fill="#2C3E50" />
  <rect x="290" y="390" width="100" height="8" rx="2" ry="2" fill="#A5ADDB" />
  <rect x="290" y="410" width="80" height="8" rx="2" ry="2" fill="#A5ADDB" />
  <rect x="580" y="380" width="80" height="30" rx="15" ry="15" fill="#5B68DF" opacity="0.9" />
  
  <!-- Animation Elements -->
  <circle cx="720" cy="450" r="15" fill="#5B68DF" opacity="0.7">
    <animate attributeName="cy" values="450;440;450" dur="2s" repeatCount="indefinite" />
  </circle>
  <circle cx="750" cy="470" r="10" fill="#FF6F61" opacity="0.5">
    <animate attributeName="cy" values="470;485;470" dur="3s" repeatCount="indefinite" />
  </circle>
  <circle cx="700" cy="490" r="8" fill="#2C3E50" opacity="0.3">
    <animate attributeName="cy" values="490;470;490" dur="2.5s" repeatCount="indefinite" />
  </circle>
  
  <!-- Notification Icon with pulse effect -->
  <circle cx="600" cy="130" r="10" fill="#FF6F61">
    <animate attributeName="r" values="10;12;10" dur="1.5s" repeatCount="indefinite" />
    <animate attributeName="opacity" values="1;0.7;1" dur="1.5s" repeatCount="indefinite" />
  </circle>
  
  <!-- Abstract Shapes -->
  <path d="M50,500 Q100,450 150,500 T250,500" stroke="#5B68DF" stroke-width="3" fill="none" opacity="0.3" />
  <path d="M50,530 Q100,480 150,530 T250,530" stroke="#FF6F61" stroke-width="2" fill="none" opacity="0.2" />
  <path d="M700,100 Q650,50 600,100 T500,100" stroke="#5B68DF" stroke-width="3" fill="none" opacity="0.3" />
</svg>